/* XPM */
static char *b13eb6cb965f41dbc78074bca2ee30db[] = {
/* columns rows colors chars-per-pixel */
"16 16 209 2 ",
"   c #080707",
".  c #030B04",
"X  c #011700",
"o  c #051105",
"O  c #041E0B",
"+  c #10140A",
"@  c #040B19",
"#  c #061210",
"$  c #03171B",
"%  c #011A1A",
"&  c #191A1B",
"*  c #1C1D1C",
"=  c #05220D",
"-  c #00260D",
";  c #06260E",
":  c #03280E",
">  c #052B10",
",  c #002D10",
"<  c #012E14",
"1  c #0A2A13",
"2  c #0B2C10",
"3  c #0C2F11",
"4  c #0C2F13",
"5  c #0B2D1F",
"6  c #112B17",
"7  c #023813",
"8  c #063816",
"9  c #0A381A",
"0  c #0E3F1D",
"q  c #153511",
"w  c #13311D",
"e  c #092F23",
"r  c #132C25",
"t  c #122E26",
"y  c #0A3220",
"u  c #093723",
"i  c #12363F",
"p  c #242021",
"a  c #242322",
"s  c #222C25",
"d  c #312C2F",
"f  c #213729",
"g  c #22382B",
"h  c #373537",
"j  c #3B373A",
"k  c #393838",
"l  c #393939",
"z  c #0B4500",
"x  c #004B1B",
"c  c #004D1C",
"v  c #1A401F",
"b  c #02511A",
"n  c #045119",
"m  c #03521E",
"M  c #06521F",
"N  c #005F1C",
"B  c #2F450F",
"V  c #02601A",
"C  c #184728",
"Z  c #005F22",
"A  c #025925",
"S  c #075827",
"D  c #045D25",
"F  c #075D2E",
"G  c #1F582B",
"H  c #124B3F",
"J  c #215929",
"K  c #245D29",
"L  c #27423C",
"P  c #254C3F",
"I  c #284B3C",
"U  c #344238",
"Y  c #3B413C",
"T  c #3D4A3C",
"R  c #2A5136",
"E  c #315130",
"W  c #325131",
"Q  c #3C5839",
"!  c #006D24",
"~  c #006F24",
"^  c #016F2A",
"/  c #066F2C",
"(  c #086F2C",
")  c #13662D",
"_  c #007028",
"`  c #00742B",
"'  c #0A722D",
"]  c #086435",
"[  c #066934",
"{  c #046339",
"}  c #006438",
"|  c #1F613F",
" . c #1C633E",
".. c #007430",
"X. c #017D3D",
"o. c #097E3A",
"O. c #25753A",
"+. c #58580C",
"@. c #486D2A",
"#. c #59663E",
"$. c #3F4D47",
"%. c #364C4F",
"&. c #20534A",
"*. c #365542",
"=. c #3B5544",
"-. c #335E42",
";. c #2D5854",
":. c #0F6447",
">. c #0B6C4B",
",. c #0B764A",
"<. c #1A7448",
"1. c #236747",
"2. c #20674F",
"3. c #336346",
"4. c #396E44",
"5. c #31614E",
"6. c #3C6049",
"7. c #3A654B",
"8. c #34684A",
"9. c #25724E",
"0. c #327C4D",
"q. c #3B6751",
"w. c #217953",
"e. c #2E7A5A",
"r. c #434343",
"t. c #454445",
"y. c #414E4A",
"u. c #4A5E53",
"i. c #4C5F52",
"p. c #485954",
"a. c #545152",
"s. c #525557",
"d. c #565B57",
"f. c #555A58",
"g. c #6A554B",
"h. c #735A42",
"j. c #765D4E",
"k. c #4B6157",
"l. c #4D635C",
"z. c #466C59",
"x. c #4C685F",
"c. c #58665E",
"v. c #437656",
"b. c #48705F",
"n. c #49765D",
"m. c #4F775F",
"M. c #547057",
"N. c #59735C",
"B. c #5E6C62",
"V. c #516E68",
"C. c #447463",
"Z. c #4F7E62",
"A. c #4D7E68",
"S. c #507F64",
"D. c #5A7B66",
"F. c #626666",
"G. c #617066",
"H. c #6A7775",
"J. c #727E78",
"K. c #178639",
"L. c #688937",
"P. c #6F9A3F",
"I. c #078348",
"U. c #0E814D",
"Y. c #04915C",
"T. c #17975B",
"R. c #3A9E46",
"E. c #21855F",
"W. c #25A14B",
"Q. c #1C9166",
"!. c #2C987C",
"~. c #34957B",
"^. c #0DA265",
"/. c #3CB26F",
"(. c #5A8955",
"). c #688D4A",
"_. c #6F9D49",
"`. c #769848",
"'. c #7D9A50",
"]. c #47A14B",
"[. c #49AA57",
"{. c #65A057",
"}. c #57816B",
"|. c #4B9B6F",
" X c #4B8176",
".X c #45887D",
"XX c #5D8074",
"oX c #59897E",
"OX c #608470",
"+X c #45AF6A",
"@X c #48AE7A",
"#X c #5EAD7A",
"$X c #68A976",
"%X c #75A37B",
"&X c #2E5C81",
"*X c #3E9481",
"=X c #3E9986",
"-X c #5C8C83",
";X c #7F8381",
":X c #69B680",
">X c #69B388",
",X c #9A9F90",
"<X c #97999A",
"1X c #9DA193",
"2X c #93A99B",
"3X c #81B898",
"4X c #88DEA8",
"5X c #BCC9C3",
"6X c None",
/* pixels */
"6X6X6X6X6Xa U c.B.T p 6X6X6X6X6X",
"6X6X6Xj f 5 r k.k.r y s d 6X6X6X",
"6X6Xk R U.].`.'.`._.R.T.OXa.6X6X",
"6Xr.3.Z 9.@.L.).|.$X[.Y.^ D.h 6X",
"6Xn.! A C q  X=X~.!.Q.X._ / G.6X",
"F.1.K. .y B 8.] S x c m M b 6.t.",
"5XI :X-X .+.z.5.*.= > 4 2 4 w k ",
"}.( ' [ w.v.;.4.7.; O G 3X# . * ",
"A.` ! ..,.Q &.W W 8 7 K (.v 0 d.",
"x.D V o.I.z P M.N.: - J %X6 1 d.",
"<X@X+X4X&XX H b.m., , ) #X9 f s.",
"6X>XW./..X#.C.Z.}.2.:.F O.n =.6X",
"6X$.<.V ^.{.h.j.g.+ o u q.&   6X",
"6X6Xp.0.} E.*XoXXXe.>.{ -.Y 6X6X",
"6X6X6X2Xy.@ % L %.$ i V.;X6X6X6X",
"6X6X6X6X6Xu.J.1X,XH.k.6X6X6X6X6X"
};
