/* XPM */
static char *e442a9e2dfb14386f8f234fb2c0a598e[] = {
/* columns rows colors chars-per-pixel */
"64 64 244 2 ",
"   c #000001",
".  c #00010B",
"X  c #070A09",
"o  c #03160A",
"O  c #010614",
"+  c #041A16",
"@  c #191A1A",
"#  c #120C08",
"$  c #28190A",
"%  c #03270B",
"&  c #043408",
"*  c #072718",
"=  c #16271A",
"-  c #053815",
";  c #163519",
":  c #142D08",
">  c #2F340F",
",  c #000327",
"<  c #020E32",
"1  c #241F22",
"2  c #192A26",
"3  c #033627",
"4  c #183725",
"5  c #053A38",
"6  c #0D2E32",
"7  c #232423",
"8  c #292B29",
"9  c #263629",
"0  c #373837",
"q  c #2D3132",
"w  c #4B0700",
"e  c #5D2A12",
"r  c #025704",
"t  c #02441C",
"y  c #014B1B",
"u  c #064718",
"i  c #15471A",
"p  c #02531C",
"a  c #015819",
"s  c #094F11",
"d  c #2F4A16",
"f  c #006802",
"g  c #01681C",
"h  c #077615",
"j  c #054924",
"k  c #194A27",
"l  c #065824",
"z  c #175726",
"x  c #0F5038",
"c  c #284A28",
"v  c #255828",
"b  c #35572A",
"n  c #374739",
"m  c #2F5032",
"M  c #016423",
"N  c #006C24",
"B  c #006D29",
"V  c #076429",
"C  c #196729",
"Z  c #007125",
"A  c #01742B",
"S  c #017A2D",
"D  c #0A782B",
"F  c #18762A",
"G  c #036A34",
"H  c #017A32",
"J  c #047737",
"K  c #167934",
"L  c #166B39",
"P  c #25682A",
"I  c #267C37",
"U  c #397A37",
"Y  c #326C30",
"T  c #2D6C0F",
"R  c #524A10",
"E  c #6F5010",
"W  c #455730",
"Q  c #4F7138",
"!  c #637633",
"~  c #656617",
"^  c #00034F",
"/  c #0A364A",
"(  c #2F3148",
")  c #313567",
"_  c #001170",
"`  c #034446",
"'  c #10504C",
"]  c #335047",
"[  c #057B45",
"{  c #017B59",
"}  c #11734E",
"|  c #377758",
" . c #2F714B",
".. c #15566D",
"X. c #14746E",
"o. c #31746E",
"O. c #314E68",
"+. c #474847",
"@. c #475249",
"#. c #4B5755",
"$. c #585858",
"%. c #504E4E",
"&. c #6A5759",
"*. c #4F6A54",
"=. c #6F6A4F",
"-. c #4A6F6D",
";. c #686667",
":. c #7C7B7C",
">. c #757476",
",. c #6A746D",
"<. c #555465",
"1. c #8D2104",
"2. c #924004",
"3. c #976420",
"4. c #8D7471",
"5. c #AC6862",
"6. c #048338",
"7. c #198438",
"8. c #068E31",
"9. c #298239",
"0. c #398339",
"q. c #2F902E",
"w. c #00A436",
"e. c #09B335",
"r. c #28AA33",
"t. c #249B0D",
"y. c #5B9A05",
"u. c #479606",
"i. c #659210",
"p. c #4D8A38",
"a. c #648D2F",
"s. c #5AB80F",
"d. c #07D11E",
"f. c #09D02B",
"g. c #62D903",
"h. c #048548",
"j. c #188747",
"k. c #038857",
"l. c #019557",
"z. c #118F53",
"x. c #368956",
"c. c #2C8C4D",
"v. c #02AB50",
"b. c #30AF50",
"n. c #019567",
"m. c #0D9172",
"M. c #2B926A",
"N. c #38956B",
"B. c #389677",
"V. c #2E8D6E",
"C. c #06AC75",
"Z. c #2DB075",
"A. c #4D8F54",
"S. c #6A925B",
"D. c #45896A",
"F. c #469B76",
"G. c #558E71",
"H. c #7C827D",
"J. c #699574",
"K. c #44A873",
"L. c #63A964",
"P. c #01CF4D",
"I. c #2DCE57",
"U. c #00E950",
"Y. c #15D06E",
"T. c #28E367",
"R. c #53D173",
"E. c #6BDD66",
"W. c #929407",
"Q. c #AE9517",
"!. c #939924",
"~. c #AF932C",
"^. c #A7AE1E",
"/. c #D09A29",
"(. c #CF9D16",
"). c #92936B",
"_. c #AFA876",
"`. c #9DA862",
"'. c #C89A63",
"]. c #9DD160",
"[. c #CFD04D",
"{. c #136293",
"}. c #597786",
"|. c #001BC3",
" X c #0000BF",
".X c #82788C",
"XX c #128D87",
"oX c #37928B",
"OX c #0CAE8A",
"+X c #2FAA90",
"@X c #0AB2A6",
"#X c #34ADAA",
"$X c #3D91A4",
"%X c #578988",
"&X c #4F948A",
"*X c #779694",
"=X c #6B8E88",
"-X c #51AA8E",
";X c #6CA791",
":X c #4EAEAC",
">X c #67B3AF",
",X c #5898AB",
"<X c #12CEAE",
"1X c #27DA94",
"2X c #6FD393",
"3X c #70C9AF",
"4X c #51E49A",
"5X c #6BC4C6",
"6X c #4FE8DB",
"7X c #44C6C5",
"8X c #878686",
"9X c #989798",
"0X c #8D9192",
"qX c #A19B9C",
"wX c #8EA796",
"eX c #A9B596",
"rX c #91AFAB",
"tX c #A8A6A7",
"yX c #B8B7B7",
"uX c #ABB5AC",
"iX c #9798A2",
"pX c #C0BBBE",
"aX c #90C9B7",
"sX c #B2C9B6",
"dX c #8AD0A0",
"fX c #DBD7AA",
"gX c #AEB9CA",
"hX c #9ABFC6",
"jX c #B5CCCE",
"kX c #AEE5D8",
"lX c #9FDBD3",
"zX c #C8C6C7",
"xX c #D5D6D7",
"cX c #E5D6D6",
"vX c #D0E5D8",
"bX c #D6D9E5",
"nX c #E9DCE1",
"mX c #D2F1EC",
"MX c #FEFDFE",
"NX c #F7F7F8",
"BX c #EDEDEF",
"VX c #EEEACE",
"CX c #C4BFC2",
"ZX c None",
/* pixels */
"ZXZXZXZXZXZXZXZXZXZXZXZXZXZXZXZXZXZXZXZXZXZXZXZXZXZX-.>XG.;XjX*XA.rXrXJ.0.ZXZXZXZXZXZXZXZXZXZXZXZXZXZXZXZXZXZXZXZXZXZXZXZXZXZXZX",
"ZXZXZXZXZXZXZXZXZXZXZXZXZXZXZXZXZXZXZXZXZXZX. % i ; = b c : b c b b 0 *.b : : 4 @   ZXZXZXZXZXZXZXZXZXZXZXZXZXZXZXZXZXZXZXZXZXZX",
"ZXZXZXZXZXZXZXZXZXZXZXZXZXZXZXZXZXZXZX7 ;.uX>.$.tX0X%.0XtX$.tX8X0XqX;.;.yXqXyX9X0XuX:.0 ZXZXZXZXZXZXZXZXZXZXZXZXZXZXZXZXZXZXZXZX",
"ZXZXZXZXZXZXZXZXZXZXZXZXZXZXZXZXZXn X # 1 @ X X 7 1 X @ 7 X 8 H.,.%.0 @ 8 8 8     1 7 X #   ZXZXZXZXZXZXZXZXZXZXZXZXZXZXZXZXZXZX",
"ZXZXZXZXZXZXZXZXZXZXZXZXZXZXZX;.qX1                         ;.NXMXoX                            ZXZXZXZXZXZXZXZXZXZXZXZXZXZXZXZX",
"ZXZXZXZXZXZXZXZXZXZXZXZXZXZX$.yX                            *.zXnX}.  .           .                 ZXZXZXZXZXZXZXZXZXZXZXZXZXZX",
"ZXZXZXZXZXZXZXZXZXZXZXZX@ +.:.8 q 0 4 + + + + + + * = * = @ = =.,.2 2 * = = = * * * + * @.$.@ 0 $.@ 2 ZXZXZXZXZXZXZXZXZXZXZXZXZX",
"ZXZXZXZXZXZXZXZXZXZXZX8 0 yX# ,.8XG.7.7.j.7.7.c.x.x.A.A.A.S.S.S.S.S.S.A.A.x.x.x.c.j.z.j.j.*.#.yXqXqXuX:.ZXZXZXZXZXZXZXZXZXZXZXZX",
"ZXZXZXZXZXZXZXZXZXZX+.8 +.# 9X1 a A J [ j.x.x.N.D.G.F.J.J.G.L.J.J.J.G.F.G.N.N.B.N.V.M.M.7.7.K ,.&.yX$.8X9X= ZXZXZXZXZXZXZXZXZXZX",
"ZXZXZXZXZXZXZXZXZX#.%.tX# #.1 a B [ k.m.N.oXB.K.F.oXJ.=X%X-X-XG.=XJ.=X=X=X%X&Xm.m.m.XXm.n.v.h.J m 0X$.0 8X,.2 ZXZXZXZXZXZXZXZXZX",
"ZXZXZXZXZXZXZXZX* 1 %.1 H.@ a B 6.j } B.OXl.u.s.u.y.y.y.y.s.>Xa.y.y.y.y.i.y.y.y.s.p.t.u.r.@Xz.h.G  .tX;.qX0X0 2 ZXZXZXZXZXZXZXZX",
"ZXZXZXZXZXZXZX  &.=X# @.= a Z H 3 L M.OXq.y.!.!.s.W.!.!.!././.'.~.Q.Q.Q.Q.~./.'.~.~.u.h C.@Xn.h.H Z I 0XtX>.>.#.ZXZXZXZXZXZXZXZX",
"ZXZXZXZXZXZX8 ;.8Xq @.* p N S - v x.XXn.u.W././.(.Q.(./.(./.~.).dX`.E.].].].[.[.].E.g.d.<XOXn.l.6.6.6.D @.tXtXqX$.ZXZXZXZXZXZXZX",
"ZXZXZXZXZXZX8X:.# wX9 s Z S - j z.D.&X-Xr > E 2.2.E R 2.E 2.2.R m O.] ] Q b $.&.=.R T 6.XXG G x p j t t 4 iX+.0 8X8 ZXZXZXZXZXZX",
"ZXZXZXZXZXn qX0 :.-.u N Z - y H x.| >Xm   / @XX.w.w.8.w.w.w.w.n.w.C.<X@X<X1X1X<X1Xd.d.jXOXC.C.v.l.w.w.w.w.b.tX;.tXyX] ZXZXZXZXZX",
"ZXZXZXZX2 %.yXqX-XB M S - t S [ x.F.9 X > E.XX$X-X+X#X+X:X#X:X#X@X:X#X:X#X@X#X:X>XC.C.$X{ { [ G a p p y a s @.$.$.%.q ZXZXZXZXZX",
"ZXZXZXZXn 0 :.*XD g S * u B G G D.9   % g.~ #   > tXiXiX*XiX0X0X*X*X*X*X=X*X*X%X%X}.D.m.k.k.} G B V V l V V M +.;.n >.#.ZXZXZXZX",
"ZXZXZX9 +.&.n g N B M M N g M z.4   * d.r     > `.-.rX;X$X&X&X=X%XF.oXoXoXoXB.B.oXB.N.z.l.h.J B B B B B N N N V +.0 :.tX= ZXZXZX",
"ZXZXZX#.9XyXF.N Z S S A B a 6.3   9 1Xa     d ! $ :Xo.B.+XoX+X+XB.D.M.M.+XZ.V.M.M.c.z.k.[ J J A A A B A A A S S ] tXyX0X+.ZXZXZX",
"ZXZX9 9X>.*.C.N B A N Z M 6.&   = 2Xx.    & h $ `.( X.|  .z.} c.} j.} j.h.[ h.h.h.6.H J H H A A A A S A B S S Z K 8X$.%.H.ZXZXZX",
"ZXZX0 ;.8 x { u s p y p M +   3 2XD.    % g # W.R V.X.k c.l S H J S H H J A H H S H S A A A A A J H J H H J S H H v $.8XyX@.ZXZX",
"ZXZX$.0X,.m.6.H 6.8.7.7.7.8.z.Y.x.O   & h o ! > ,.&X3 B.+ B M l l l p a p a p l a p l p p p l p p p p p p s s p p k .X0X>.q ZXZX",
"ZX] :.qX*Xh.h 8.D F e.e.7.h 6.z     & h o T : E ~ ( m.- k.p - ; - - t - t t t t t j t t t t j i i i j i i i j i j p 9 :.).+.2 ZX",
"ZX8XnXtXx         S I.3X-X*   ,   9 N.X h : ~ E 0 rX6 m.G J p I j.p y y y y u u t y y t u - u - - u - - - - - - - - 4 <.;.q @ ZX",
"; zXMXMXkX6 .   a U.mXMXMX>X< , 2 K.4 f & E E > `.8 B.{ k.+ 9 gXgXO.                    o o o o o o + o o o o + o o 6 < # +.@ ZX",
"n nXxXBXNX'     w.4XMXmXMXmX6 2 -X..M.- R ~ > ^.> wXD.M.6   *.BXNX,X                o D K C F P F P P P P C F C C C A.;.+..X%.ZX",
",.NXNXMXlX*     8.E.cXnXBX-X4 A.' -XX.T ~ > W.$ _.iXoX6 ,   o 9XgX(               o 8.*                                       1 ",
"9XqX9X2X} o X X - I.E.dXZ.6.c.5 &X-XZ.T w Q.: Y ).hX* * } C C F P z V C C V C V V D o     + ; 2 2 = = 2 ; ; * ; - - - = 0 q +.$.",
"8X>.;.7.9.9.I I 9.z g S B c.+ z.XX+XV.> W.# f A.zX) k N.; 0.p.0.U 0.0.9.K K 7.D 8.D z C C 9.Y q.r.b.0.Y Y P v C C C z v $.$.H.8X",
"+.qXwXD D S A A D G L L K o J { m.| ' u.$ f @.xX) / G.= p.P F c.K.C ; : : - & % % % % : :   & e.dXkX3X3                 # 0   @ ",
">.0X*Xh.g N M B M N B B M A j x J * -XX.7.c.jX) < -X4 x.k o k vXBXoX                        h R.MXnXMX:X.                     7 ",
"0X$.] l.N B B A A B B A A V V G * Z.` #X#X5XO./ -X/ N.k O o Q MXMX>X.                       8.R.MXVXMX>X.   .   . .           8 ",
"8X;. .n.N A A B Z Z A A A A J p l.3 m.z.t.4 / -X] V.' .   X * J.iX5                         g P.sXvXlXx                     X q ",
">.9X%Xl.g B B B B B B Z S B A h.G l.XXt.1.e +X/ oX' O 4 k k m d c m c i 4 u - - - - t j i k v b.I.E.b.Y m c k k k z l j n tX,.&.",
"0 8XrXD N N N N N N N N B Z A h.n.{ OX= $ ~.e } o.O N. .b b W W W W b v z s l y y s s u i i d d 0 d R n d d i i u u - - ,.4.0X;.",
"+.&.=XA N N N N Z B Z Z B Z S h.n.C.5 X u.@ ~ R O >X' x ] v c m c c d z k k y y y t y s i z v b W W b b v v z z l l z z iX%.8X9X",
"+.tXiXOXS N N N g g N Z B N S h.k.m.n.f o f d # ).-.o.| k Q p.a.a.p.p.0.7.6.D S S S S 8.F U U Q ! ! ! p.Q 0.9.9.F 6.7.K 9X$.4.iX",
"$.0X0 m.J N N N B Z N Z B M A [ k.m.k.r f &   h R oX-.  Q Y b b Q c d k i u u u t u - - u i i q.r.b.I d i 4 ; - - - & * ;.=X+.*.",
"$.0X+.|  .S D B D D D S Z D J k.n.m.n.r r & f % y | . D. .. ; zXbX%X              .         - e.dXBXkX'                 @ zX%.ZX",
"= +.q }.c - - - & - & z I I c.A.K.K.n.f f h r f a X G.o.< o eXMXMXMX..  .   .     .   .     8.R.MXNXMX5XO .                 1 ZX",
"ZX7 CX*XX   X a Z s : Q U r.I.Z.M.oX' s r - r &   D.o._ < o eXnXNXMX..  .       .           8.I.cXcXMX7XX   .         # +.1 #.ZX",
"ZX,.NXBX5X* w.U.4XdX].G e.2XmXkX@X.._ X         g  .< ^ , O ; yXjX}..                       y P.R.sX3X'               @ yXbX*XZX",
"ZXuXMXMXNXY.U.R.bXMXlXe.T.NXNXMXmX{.|.< .     r u ' o.o.] v P  . .v v z j p y y y p p p l z z b.b.b.b.Y P v z z z M n 0 0 ;.] ZX",
"ZXZXBXMXNX1XU.+X*XVX6XU.T.NXbXMXmX{.|.,   . T s * V. .B.M.I U 0.0.0.I I K A A N A B B B B D K P Y Y Y Y Y K F D S B @.9X>.$.ZXZX",
"ZXZXsXnXBX#XU.P.K.R.P.Z U.2XvXkX<X_  XO   *.=.> c.j G.D.x.| | U | U  .I } [ [ [ J J G J A A D F K K 7.K F K D D S ] %.8XyXH.ZXZX",
"ZXZXx.BXvX#.b.T.I.I.x.m I.T.T.1X+Xo.$X~ 3.~ 9 ).> rX-.B.*. .S.G.S.G.G.D.D.V.M.{ m.k.{ [ J J A S A Z D F D F S D A ] >.tX>.ZXZXZX",
"ZXZXZX0X8X$.Q U U 0.U 0.U I j.x.M.Z.aX[.Q.! S.: ;XtX>X' + -.wX*XiX*X=X=X=X%X&X$X%X%Xm.{ { [ G N M h g M M V l V k %.).>.,.ZXZXZX",
"ZXZXZXm :.;.uX+X[ D J D H H J l.n.m.aXa.i.A.] ,X#X$X2 5 ;X<.2 uXjX}..     X * 2 @ @ # < ^ , o o W uX%X                    ZXZXZX",
"ZXZXZXZX0 9X0XX.C.g B B B B S J k.n.>Xe.m.&X:XJ.`.e w J.=.  3.NXNXaX                    .   & 3 sXMXBX`                 ZXZXZXZX",
"ZXZXZXZXZX,.:.0 [ n.g g g Z A 6.n.n.@X<XY.`.'.'.1.1._.5.#   E fXNXwX                    .   t 3 ).NXhX+     O         ZXZXZXZXZX",
"ZXZXZXZXZXk qX:.*.<XD Z Z Z A H l.n.@XP.t.^.[.~._._.5.w   # w 2.3.1.#                   . . & j - 4 + .   O q   #   ZXZXZXZXZXZX",
"ZXZXZXZXZXZX@ 0 0 ( 4 o % % % - 3 x G { ; o & : 9 e 1.&.9XqX'.5.5.5.4.=.~ Q T f r r r r g m.k.[ A M g g F H.+.:.:.m ZXZXZXZXZXZX",
"ZXZXZXZXZXZXZXn %.9XhXOXS Z S J h.l.n.OX6X1Xf.P.Y.Y.<X5X-.L  .5 0 ( 6 9 9 4 4 3 - + + % 3 G p * + % * + q 8 8 %.= ZXZXZXZXZXZXZX",
"ZXZXZXZXZXZXZXZX0 tX<.| C.M B B J [ k.k.OX3XrXhXhXhXaX>X5X5XhXaXyXaX5X5X>X3X>X>X>X-XM.XXXXM.[ J V a p c >.>.:.$.ZXZXZXZXZXZXZXZX",
"ZXZXZXZXZXZXZXZXZX#.%.@ m z % : ; 3 3 3 j { X.X. .X.{.X.o.o.| W W U | | X.} } L X.{ ' ' ` j j 3 - m +.1 7 8 = ZXZXZXZXZXZXZXZXZX",
"ZXZXZXZXZXZXZXZXZXZX4.=XnXeXR.b.7.V G G [ { k.V.V.M.M.N.B.G.H.*XrXH.G.D.x.x.c.z.l.h.k.l.h.J B B p ,.NX>.0 0 ZXZXZXZXZXZXZXZXZXZX",
"ZXZXZXZXZXZXZXZXZXZXZX$.pXtXNXlXl..       . + 5 5 ` ` ` ` / ` *XvX$X< ^ * j 3 ` ` 5 5 3 + + X 0XpXzXnXzX  ZXZXZXZXZXZXZXZXZXZXZX",
"ZXZXZXZXZXZXZXZXZXZXZXZXJ.MXCXBXvX#.  .   . O X o + + + + O m hXbXkX, O O + O + + O . 5 XX>X9X;.MXMXNX$.ZXZXZXZXZXZXZXZXZXZXZXZX",
"ZXZXZXZXZXZXZXZXZXZXZXZXZXaXvXBXMX0   . . .     .           o 9XjX-..           .   < {./ @ pX8XqXvX=XZXZXZXZXZXZXZXZXZXZXZXZXZX",
"ZXZXZXZXZXZXZXZXZXZXZXZXZXZXZXvXxXq X   , _ ^                   O .         O _ {.) ( 0   q uX+.c ZXZXZXZXZXZXZXZXZXZXZXZXZXZXZX",
"ZXZXZXZXZXZXZXZXZXZXZXZXZXZXZXZXq .X;.$.@ + ( ;.8 +.o.] m > d b d d c k 4 #.O.( %.0X>.8X8XH.@.ZXZXZXZXZXZXZXZXZXZXZXZXZXZXZXZXZX",
"ZXZXZXZXZXZXZXZXZXZXZXZXZXZXZXZXZXZXn wX8X;.:.yX:.yX,.:.eXwXeXVX_.fXuXW $.yX%.0 ;.tX+.0 ] ZXZXZXZXZXZXZXZXZXZXZXZXZXZXZXZXZXZXZX",
"ZXZXZXZXZXZXZXZXZXZXZXZXZXZXZXZXZXZXZXZXZX;XeXH.9XxX:.;.0XNXbXMXNXMXBX:.8XnXzXCXsXJ.c.ZXZXZXZXZXZXZXZXZXZXZXZXZXZXZXZXZXZXZXZXZX",
"ZXZXZXZXZXZXZXZXZXZXZXZXZXZXZXZXZXZXZXZXZXZXZXZXN.dXjXzXnXxXnXMXNXMXNXzXtXS.;XK.ZXZXZXZXZXZXZXZXZXZXZXZXZXZXZXZXZXZXZXZXZXZXZXZX"
};
