/* XPM */
static char *c5f5ba5481174cdbe87b6f46dbe69ece[] = {
/* columns rows colors chars-per-pixel */
"32 32 218 2 ",
"   c #000001",
".  c #060A09",
"X  c #0A1E0C",
"o  c #031B09",
"O  c #020417",
"+  c #101810",
"@  c #052607",
"#  c #0D2513",
"$  c #052814",
"%  c #132515",
"&  c #0C3515",
"*  c #033B14",
"=  c #093A15",
"-  c #063918",
";  c #16340E",
":  c #312816",
">  c #0C1B2A",
",  c #07102F",
"<  c #062A24",
"1  c #023429",
"2  c #12302B",
"3  c #272B28",
"4  c #323433",
"5  c #3B3B3C",
"6  c #323C35",
"7  c #2A393A",
"8  c #453D33",
"9  c #044209",
"0  c #005804",
"q  c #034119",
"w  c #024918",
"e  c #00591E",
"r  c #06551D",
"t  c #364B06",
"y  c #324A13",
"u  c #00661E",
"i  c #326203",
"p  c #16492A",
"a  c #025B22",
"s  c #085728",
"d  c #13532B",
"f  c #165A26",
"g  c #0A5935",
"h  c #1B5635",
"j  c #164933",
"k  c #275925",
"l  c #355626",
"z  c #2B5636",
"x  c #314C37",
"c  c #026424",
"v  c #016D25",
"b  c #016D2B",
"n  c #046429",
"m  c #007125",
"M  c #00742B",
"N  c #037A2D",
"B  c #0C762A",
"V  c #17752C",
"C  c #046737",
"Z  c #007C35",
"A  c #047737",
"S  c #147934",
"D  c #146935",
"F  c #276738",
"G  c #297736",
"H  c #346B34",
"J  c #4A4809",
"K  c #584813",
"L  c #565104",
"P  c #406A05",
"I  c #4C5528",
"U  c #7C4B3C",
"Y  c #446D35",
"T  c #487039",
"R  c #696B1F",
"E  c #103949",
"W  c #00006A",
"Q  c #132661",
"!  c #303C62",
"~  c #463F44",
"^  c #135349",
"/  c #3B4A46",
"(  c #265649",
")  c #355754",
"_  c #2F5250",
"`  c #036B4C",
"'  c #0B724F",
"]  c #276548",
"[  c #316D59",
"{  c #2C7B58",
"}  c #3B7559",
"|  c #2C6C50",
" . c #1C7E77",
".. c #367560",
"X. c #2D6F67",
"o. c #434543",
"O. c #4A4B4B",
"+. c #484847",
"@. c #4A564C",
"#. c #485658",
"$. c #545453",
"%. c #5E5C5C",
"&. c #504E4F",
"*. c #615A5F",
"=. c #446848",
"-. c #486C57",
";. c #556259",
":. c #457759",
">. c #577659",
",. c #526A4E",
"<. c #635D61",
"1. c #557B63",
"2. c #50776E",
"3. c #676B68",
"4. c #71696B",
"5. c #69776D",
"6. c #797878",
"7. c #6E6A72",
"8. c #5F5F5E",
"9. c #917204",
"0. c #A2710D",
"q. c #8D4B34",
"w. c #83712B",
"e. c #817B7D",
"r. c #2BA51D",
"t. c #028236",
"y. c #188836",
"u. c #33853A",
"i. c #2E9F10",
"p. c #41811E",
"a. c #7E9F35",
"s. c #768933",
"d. c #74A620",
"f. c #6DA318",
"g. c #068447",
"h. c #058954",
"j. c #168A59",
"k. c #15954C",
"l. c #27814D",
"z. c #299250",
"x. c #18B04C",
"c. c #32A64C",
"v. c #01966E",
"b. c #179469",
"n. c #1A9976",
"m. c #10866A",
"M. c #298A67",
"N. c #249867",
"B. c #38966D",
"V. c #258776",
"C. c #388879",
"Z. c #279C77",
"A. c #0BA775",
"S. c #35AD6F",
"D. c #4A8558",
"F. c #57845A",
"G. c #53964C",
"H. c #768C56",
"J. c #468768",
"K. c #558A67",
"L. c #478677",
"P. c #569B73",
"I. c #4C956C",
"U. c #738779",
"Y. c #669873",
"T. c #678673",
"R. c #51A670",
"E. c #07DA64",
"W. c #39C766",
"Q. c #8C9F1E",
"!. c #8A9D25",
"~. c #969F2B",
"^. c #92A62B",
"/. c #9A9E59",
"(. c #9BA563",
"). c #556683",
"_. c #717985",
"`. c #837C81",
"'. c #2F8F90",
"]. c #08A280",
"[. c #2BAEA5",
"{. c #27AF93",
"}. c #53938A",
"|. c #668586",
" X c #709493",
".X c #51A88F",
"XX c #6C9DA1",
"oX c #62B6A1",
"OX c #16C084",
"+X c #30E782",
"@X c #7AE8A6",
"#X c #6EC884",
"$X c #66A5CF",
"%X c #8B888A",
"&X c #979897",
"*X c #94938C",
"=X c #9DA698",
"-X c #8CB296",
";X c #A1A991",
":X c #8CAFB1",
">X c #AFB1AF",
",X c #81D3A4",
"<X c #AEDFB2",
"1X c #89DD93",
"2X c #CBD0BE",
"3X c #A4C8D2",
"4X c #BCCBC6",
"5X c #80FBC4",
"6X c #BAE4C4",
"7X c #BFD6E2",
"8X c #C8CBC6",
"9X c #C7D2CF",
"0X c #CCDCE1",
"qX c #DBF9E8",
"wX c #FEFEFE",
"eX c #F3FFFF",
"rX c #EDEBEC",
"tX c None",
/* pixels */
"tXtXtXtXtXtXtXtXtXtXtXtXz -.>.1.>.T.Y l tXtXtXtXtXtXtXtXtXtXtXtX",
"tXtXtXtXtXtXtXtXtX+ o.5 O.5 +.5.6.+.%.O.&.4 . tXtXtXtXtXtXtXtXtX",
"tXtXtXtXtXtXtX&.4             *X:X.               tXtXtXtXtXtXtX",
"tXtXtXtXtXtXO.*.@.d p f h z x >.>.z z h g h z $.7.$.tXtXtXtXtXtX",
"tXtXtXtXtX$.~ x A h.N.B.R.P.Y.R.Y.Y.R.B.Z.b.k.j.U._.8.tXtXtXtXtX",
"tXtXtXtXo./ p u g b.c.d.f.Q.^./.~.Q.Q.~.a.i.A.h.S T.*X@.tXtXtXtX",
"tXtXtX$.<.p a r { Z.P 0.9.9.0.w.F.G.H.(.a.r.].' b n 5.%X@.tXtXtX",
"tXtX4 &X} a r n J.7 f  .N.N.N.Z.n.[.[.[.S.S.A.h.A v S 3.6.3 tXtX",
"tXtX$.>.N e e A 2 9 i + 5.:XXXXXXX}..X}.}.N.h.C n c c f &.7.tXtX",
"tX/ %X' u v v $ x D   y ,. .V.N.M.j.b.j.h.g.Z N M M N m K.%X6 tX",
"tX*.{ Z v v c D }   9 J ,.] s u e c n c c c c n n n n c g 6.3.tX",
"/ >X] * u W.l.- . f w K ,.` C s r q q - q - * = = = = = = @.$.tX",
"&XwX|.  x.eX7X> [ f t R 3.M.1 %X:X        # = & & & = = = 7 5 4 ",
">X4X} . z.<XoX] '.{ L L %X( - =.>.$ & - w = X % X X % # @ % 3 5 ",
"e.D.B V V M a C N.H t D.7.( G u.u.k f s r = = V #X:.; # $ # 6 +.",
"6.l.b b v b n g g V.Z.).| ^ o *X3X            c.wX3X          . ",
"6.M.m b b b b M ` h.I | X.< + =.-.+ X o o X X y.1XK.% # # @ 4 +.",
"4.I.v v m m m g.v.j J I _ ] z l l k d a e r f l l l k k s f U.%X",
"6.L.Z m m m m Z v.b 9 ; -._ H Y T k s e e e f H G.T k f r d 6.4.",
"O.O.f w w r V y.Z.t.0 0 p ) < =X0X>         . y.qX:X        3 5 ",
"6 4Xj b B.Y c.,X'.1 o o d Q O ;X9X>           k.6X:X.     + 3.#.",
"tXwX5XE.0X+X@XwX$XW   @ s X.| H H D a a e a a V z.u.f f n @.6.tX",
"tX>X:Xx.W.k.W.@X[.! K I :.C.} F.F.D.M.j.h.g.t.N m B S t.F %X7.tX",
"tXtXe.P.y.G S g.n.(.s...XX) ) %X:X/ ( _ ) E E w D.F * $ % 5 tXtX",
"tXtX,.|.h.v v Z v.OXR.;Xq.q.+ /.2X            $ 2X5.        tXtX",
"tXtXtX%.[ D w a ` v.p.p.w.U 8 q.q.: : @ o @ 1 g g - 3 5 3 tXtXtX",
"tXtXtXtX4.L.b e C m.{.S..XoX.X|.5.}.2.{ | ` ' g q = &.$.tXtXtXtX",
"tXtXtXtXtX8.U.G s s `  .V.V.'.T.Y.2.M.j.m.' C s ] 6.4 tXtXtXtXtX",
"tXtXtXtXtXtX8XqX2.    $ 1 1 < _.3X, < < > 1 ( 5.rX4XtXtXtXtXtXtX",
"tXtXtXtXtXtXtX4X&X. O O       3 _     O > E ) %XT.tXtXtXtXtXtXtX",
"tXtXtXtXtXtXtXtXtX;.#.7.7.;.3.H.H.$.8.#._.3.@.tXtXtXtXtXtXtXtXtX",
"tXtXtXtXtXtXtXtXtXtXtXJ.-X>X8XwXwX9X=X-XF.tXtXtXtXtXtXtXtXtXtXtX"
};
